<svg width="62" height="16" viewBox="0 0 62 16" fill="none" xmlns="http://www.w3.org/2000/svg">
<g clip-path="url(#clip0)">
<path d="M0.0809937 15.8273H7.63619V15.0068L5.76354 14.4454V9.75982L6.40929 9.93255C7.22721 10.1701 8.02364 10.278 8.777 10.278C11.6613 10.278 13.8138 8.57222 13.8138 5.61405C13.8138 2.6343 11.4245 0.97168 7.44246 0.97168H0.0809937V1.79219L1.84603 2.35359V14.4454L0.0809937 15.0068V15.8273ZM5.76354 2.33201H7.11961C9.25058 2.33201 9.81022 2.89341 9.81022 5.61405C9.81022 8.05402 9.46584 8.83135 7.61465 8.83135C7.3994 8.83135 7.14114 8.83135 6.88282 8.80975L5.76354 8.72335V2.33201Z" fill="white"/>
<path d="M16.6286 16C18.1139 16 19.3623 14.8988 19.9866 13.8191C19.9866 15.1794 20.8691 15.9568 22.2897 15.9568C23.3444 15.9568 24.0332 15.5681 24.5929 15.2442V14.3806C23.409 14.2726 23.2153 14.1862 23.2153 13.5384V9.91089C23.2153 6.13221 21.644 5.0094 18.7596 5.0094C16.8439 5.0094 14.2394 5.80832 14.2394 7.77322C14.2394 8.74489 14.8637 9.43582 15.7892 9.43582C16.6286 9.43582 17.2529 8.85289 17.2529 8.09715C17.2529 7.42775 16.9085 6.80155 16.069 6.62883V6.58565C16.3704 6.49928 16.887 6.41291 17.5973 6.41291C19.1901 6.41291 19.9866 6.77995 19.9866 8.31302V9.91089L18.1569 10.2348C15.2296 10.7314 13.9166 11.6383 13.9166 13.5168C13.9166 15.0283 15.0789 16 16.6286 16ZM18.1784 14.0998C17.5327 14.0998 17.1453 13.7976 17.1453 12.9554C17.1453 12.027 17.4897 11.5735 18.609 11.1632L19.9866 10.6666V13.085C19.4914 13.7328 18.8888 14.0998 18.1784 14.0998Z" fill="white"/>
<path d="M31.6932 15.8273H37.2681V14.6397H36.3426L32.7264 9.04727L35.3309 6.54251H36.7085V5.35493H31.6716V6.54251H33.0492L29.4761 10.9474V0H28.7228L24.59 1.61943V2.09447L26.2474 3.02294V14.6397H24.8483V15.8273H30.4232V14.6397H29.4761V12.1781L30.5954 11.0985L32.7049 14.6397H31.6932V15.8273Z" fill="white"/>
<path d="M44.5198 15.8273H50.0947V14.6397H49.1692L45.553 9.04727L48.1575 6.54251H49.5351V5.35493H44.4983V6.54251H45.8758L42.3027 10.9474V0H41.5494L37.4166 1.61943V2.09447L39.074 3.02294V14.6397H37.6749V15.8273H43.2498V14.6397H42.3027V12.1781L43.422 11.0985L45.5315 14.6397H44.5198V15.8273Z" fill="white"/>
<path d="M55.4894 16C58.8042 16 61.1505 13.2793 61.1505 10.4939C61.1505 7.70849 58.8042 5.0094 55.4894 5.0094C52.1746 5.0094 49.8284 7.70849 49.8284 10.4939C49.8284 13.2793 52.1746 16 55.4894 16ZM55.4894 14.7908C54.1979 14.7908 53.423 14.0782 53.423 10.4939C53.423 6.88795 54.2194 6.21858 55.4894 6.21858C56.7594 6.21858 57.5558 6.86635 57.5558 10.4939C57.5558 14.0782 56.7809 14.7908 55.4894 14.7908Z" fill="white"/>
</g>
<defs>
<clipPath id="clip0">
<rect width="61.1412" height="16" fill="white" transform="translate(0.0809937)"/>
</clipPath>
</defs>
</svg>
